<svg width="483" height="64" viewBox="0 0 483 64" fill="none" xmlns="http://www.w3.org/2000/svg">
<path d="M5.47865 48C4.84703 48 4.29779 47.7666 3.83094 47.2997C3.36408 46.8329 3.13066 46.2836 3.13066 45.652V20.2772C3.13066 19.6456 3.36408 19.0963 3.83094 18.6295C4.29779 18.1626 4.84703 17.9292 5.47865 17.9292H24.0154C24.6471 17.9292 25.1963 18.1626 25.6632 18.6295C26.13 19.0963 26.3634 19.6456 26.3634 20.2772V45.652C26.3634 46.2836 26.13 46.8329 25.6632 47.2997C25.1963 47.7666 24.6471 48 24.0154 48H21.6674C21.0358 48 20.4866 47.7666 20.0197 47.2997C19.5803 46.8329 19.3606 46.2836 19.3606 45.652V23.9022C19.3606 23.6825 19.2371 23.5726 18.9899 23.5726H10.5042C10.257 23.5726 10.1334 23.6825 10.1334 23.9022V45.652C10.1334 46.2836 9.90002 46.8329 9.43317 47.2997C8.99377 47.7666 8.45827 48 7.82664 48H5.47865ZM51.772 32.9646C51.772 26.5111 49.4652 23.2843 44.8516 23.2843C40.238 23.2843 37.9312 26.5111 37.9312 32.9646C37.9312 39.4182 40.238 42.6449 44.8516 42.6449C49.4652 42.6449 51.772 39.4182 51.772 32.9646ZM55.1498 44.3338C52.6233 47.0526 49.1906 48.4119 44.8516 48.4119C40.5126 48.4119 37.0799 47.0526 34.5534 44.3338C32.0269 41.5876 30.7637 37.7979 30.7637 32.9646C30.7637 28.1313 32.0269 24.3553 34.5534 21.6366C37.0799 18.8904 40.5126 17.5173 44.8516 17.5173C49.1906 17.5173 52.6233 18.8904 55.1498 21.6366C57.6763 24.3553 58.9396 28.1313 58.9396 32.9646C58.9396 37.7979 57.6763 41.5876 55.1498 44.3338ZM63.8866 48C63.3373 48 62.9254 47.7666 62.6508 47.2997C62.3762 46.8329 62.3624 46.366 62.6096 45.8992L69.0769 33.0882C69.1593 32.8685 69.1593 32.6488 69.0769 32.4291L62.8156 20.03C62.5684 19.5632 62.5821 19.0963 62.8568 18.6295C63.1314 18.1626 63.5433 17.9292 64.0925 17.9292H67.0996C67.8136 17.9292 68.459 18.1214 69.0357 18.5059C69.6399 18.8904 70.0792 19.4122 70.3539 20.0712L73.9376 28.6805C73.9376 28.708 73.9514 28.7217 73.9788 28.7217C74.0063 28.7217 74.02 28.708 74.02 28.6805L77.6038 20.0712C77.8784 19.4122 78.3041 18.8904 78.8808 18.5059C79.4849 18.1214 80.144 17.9292 80.858 17.9292H83.7004C84.2221 17.9292 84.6203 18.1626 84.8949 18.6295C85.197 19.0963 85.2245 19.5632 84.9773 20.03L78.716 32.4291C78.6336 32.6488 78.6336 32.8685 78.716 33.0882L85.1833 45.8992C85.4305 46.366 85.403 46.8329 85.1009 47.2997C84.8263 47.7666 84.4281 48 83.9063 48H80.7345C80.0205 48 79.3751 47.8078 78.7984 47.4233C78.2217 47.0114 77.796 46.4759 77.5214 45.8168L73.8553 36.8367C73.8553 36.8093 73.8415 36.7955 73.8141 36.7955C73.7866 36.7955 73.7729 36.8093 73.7729 36.8367L70.1067 45.8168C69.8321 46.4759 69.3927 47.0114 68.7885 47.4233C68.2118 47.8078 67.5802 48 66.8937 48H63.8866ZM109.217 32.9646C109.217 26.5111 106.91 23.2843 102.296 23.2843C97.6827 23.2843 95.3759 26.5111 95.3759 32.9646C95.3759 39.4182 97.6827 42.6449 102.296 42.6449C106.91 42.6449 109.217 39.4182 109.217 32.9646ZM112.595 44.3338C110.068 47.0526 106.635 48.4119 102.296 48.4119C97.9574 48.4119 94.5246 47.0526 91.9981 44.3338C89.4716 41.5876 88.2084 37.7979 88.2084 32.9646C88.2084 28.1313 89.4716 24.3553 91.9981 21.6366C94.5246 18.8904 97.9574 17.5173 102.296 17.5173C106.635 17.5173 110.068 18.8904 112.595 21.6366C115.121 24.3553 116.384 28.1313 116.384 32.9646C116.384 37.7979 115.121 41.5876 112.595 44.3338ZM128.828 42.0682C128.773 42.1232 128.76 42.1918 128.787 42.2742C128.842 42.3291 128.911 42.3566 128.993 42.3566H137.191C137.438 42.3566 137.561 42.2467 137.561 42.027V23.9022C137.561 23.6825 137.438 23.5726 137.191 23.5726H132.495C132.247 23.5726 132.124 23.6962 132.124 23.9434C132.124 29.1062 131.918 32.7998 131.506 35.0242C131.094 37.2487 130.202 39.5967 128.828 42.0682ZM121.496 54.5909C120.864 54.5909 120.315 54.3574 119.848 53.8906C119.382 53.4237 119.148 52.8745 119.148 52.2429V44.2103C119.148 43.6885 119.327 43.2491 119.684 42.8921C120.041 42.5351 120.48 42.3566 121.002 42.3566C121.249 42.3566 121.4 42.2879 121.455 42.1506C123.075 39.679 124.146 37.2761 124.668 34.9419C125.19 32.6076 125.451 28.8179 125.451 23.5726V20.2772C125.451 19.6456 125.67 19.0963 126.11 18.6295C126.577 18.1626 127.126 17.9292 127.757 17.9292H142.093C142.724 17.9292 143.273 18.1626 143.74 18.6295C144.207 19.0963 144.441 19.6456 144.441 20.2772V42.027C144.441 42.2467 144.55 42.3566 144.77 42.3566H145.717C146.349 42.3566 146.898 42.59 147.365 43.0569C147.832 43.5237 148.065 44.0729 148.065 44.7046V52.2429C148.065 52.8745 147.832 53.4237 147.365 53.8906C146.898 54.3574 146.349 54.5909 145.717 54.5909H143.946C143.315 54.5909 142.765 54.3574 142.298 53.8906C141.832 53.4237 141.598 52.8745 141.598 52.2429V48.3707C141.598 48.1236 141.488 48 141.269 48H125.945C125.725 48 125.615 48.1236 125.615 48.3707V52.2429C125.615 52.8745 125.382 53.4237 124.915 53.8906C124.448 54.3574 123.899 54.5909 123.267 54.5909H121.496ZM179.02 48C178.388 48 177.839 47.7666 177.372 47.2997C176.905 46.8329 176.672 46.2836 176.672 45.652V20.2772C176.672 19.6456 176.905 19.0963 177.372 18.6295C177.839 18.1626 178.388 17.9292 179.02 17.9292H181.368C181.999 17.9292 182.535 18.1626 182.974 18.6295C183.441 19.0963 183.674 19.6456 183.674 20.2772V30.7814C183.674 30.8088 183.688 30.8226 183.716 30.8226C183.771 30.8226 183.798 30.8088 183.798 30.7814L190.801 19.9065C191.625 18.5883 192.819 17.9292 194.385 17.9292H197.845C198.339 17.9292 198.696 18.1489 198.916 18.5883C199.136 19.0277 199.108 19.4533 198.833 19.8653L190.471 32.0584C190.334 32.2506 190.334 32.4428 190.471 32.6351L199.287 46.0639C199.561 46.4759 199.575 46.9015 199.328 47.3409C199.108 47.7803 198.751 48 198.257 48H194.797C193.231 48 192.05 47.3409 191.254 46.0227L183.798 33.912C183.798 33.8846 183.771 33.8708 183.716 33.8708C183.688 33.8708 183.674 33.8846 183.674 33.912V45.652C183.674 46.2836 183.441 46.8329 182.974 47.2997C182.535 47.7666 181.999 48 181.368 48H179.02ZM203.746 48.206C203.142 48.2884 202.606 48.1098 202.139 47.6705C201.672 47.2311 201.439 46.6956 201.439 46.0639V45.2813C201.439 44.6496 201.645 44.1004 202.057 43.6336C202.496 43.1392 203.045 42.796 203.704 42.6037C205.023 42.2193 205.915 41.3817 206.382 40.091C206.876 38.8003 207.123 36.6033 207.123 33.5001V20.2772C207.123 19.6456 207.357 19.0963 207.824 18.6295C208.291 18.1626 208.84 17.9292 209.471 17.9292H225.949C226.58 17.9292 227.129 18.1626 227.596 18.6295C228.063 19.0963 228.297 19.6456 228.297 20.2772V45.652C228.297 46.2836 228.063 46.8329 227.596 47.2997C227.129 47.7666 226.58 48 225.949 48H223.601C222.969 48 222.42 47.7666 221.953 47.2997C221.514 46.8329 221.294 46.2836 221.294 45.652V23.9022C221.294 23.6825 221.17 23.5726 220.923 23.5726H214.497C214.25 23.5726 214.126 23.6825 214.126 23.9022V33.3765C214.126 38.5394 213.371 42.1781 211.861 44.2926C210.35 46.4072 207.645 47.7116 203.746 48.206ZM241.768 38.7728L233.158 20.03C232.939 19.5357 232.98 19.0689 233.282 18.6295C233.584 18.1626 233.996 17.9292 234.518 17.9292H237.854C238.568 17.9292 239.2 18.1352 239.749 18.5471C240.326 18.9316 240.738 19.4533 240.985 20.1124L245.599 32.9234C245.599 32.9509 245.612 32.9646 245.64 32.9646C245.695 32.9646 245.722 32.9509 245.722 32.9234L250.295 20.1124C250.514 19.4533 250.912 18.9316 251.489 18.5471C252.093 18.1352 252.739 17.9292 253.425 17.9292H256.597C257.174 17.9292 257.613 18.1626 257.915 18.6295C258.217 19.0689 258.245 19.5495 257.998 20.0712L249.677 39.2259C248.413 42.1643 246.697 44.3613 244.528 45.8168C242.358 47.2448 239.502 48.0824 235.959 48.3295C235.328 48.357 234.779 48.151 234.312 47.7116C233.872 47.2448 233.653 46.6956 233.653 46.0639V45.1165C233.653 44.4849 233.886 43.9494 234.353 43.51C234.82 43.0431 235.369 42.7822 236.001 42.7273C237.731 42.6175 239.008 42.3154 239.832 41.8211C240.655 41.2993 241.301 40.4892 241.768 39.3907C241.85 39.1985 241.85 38.9925 241.768 38.7728ZM268.712 34.4475V42.4802C268.712 42.7273 268.808 42.8646 269.001 42.8921C269.824 43.0294 270.593 43.098 271.307 43.098C275.042 43.098 276.91 41.4778 276.91 38.2373C276.91 36.8367 276.429 35.752 275.468 34.9831C274.534 34.2141 273.147 33.8297 271.307 33.8297C270.593 33.8297 269.852 33.8983 269.083 34.0356C268.836 34.0905 268.712 34.2279 268.712 34.4475ZM264.14 48.0824C263.481 48.0275 262.932 47.7391 262.492 47.2173C262.053 46.6956 261.833 46.1051 261.833 45.446V20.2772C261.833 19.6456 262.067 19.0963 262.533 18.6295C263 18.1626 263.549 17.9292 264.181 17.9292H279.711C280.342 17.9292 280.878 18.1626 281.317 18.6295C281.784 19.0963 282.018 19.6456 282.018 20.2772V20.9363C282.018 21.5679 281.784 22.1172 281.317 22.584C280.878 23.0234 280.342 23.2431 279.711 23.2431H269.083C268.836 23.2431 268.712 23.3667 268.712 23.6138V28.7217C268.712 28.9689 268.836 29.065 269.083 29.0101C270.099 28.8728 271.074 28.8041 272.008 28.8041C275.715 28.8041 278.544 29.628 280.493 31.2757C282.443 32.9234 283.418 35.2439 283.418 38.2373C283.418 41.7524 282.43 44.3338 280.452 45.9815C278.475 47.6018 275.276 48.4119 270.854 48.4119C268.657 48.4119 266.419 48.3021 264.14 48.0824ZM314.345 48C313.713 48 313.164 47.7666 312.697 47.2997C312.23 46.8329 311.997 46.2836 311.997 45.652V20.2772C311.997 19.6456 312.23 19.0963 312.697 18.6295C313.164 18.1626 313.713 17.9292 314.345 17.9292H316.693C317.324 17.9292 317.86 18.1626 318.299 18.6295C318.766 19.0963 318.999 19.6456 318.999 20.2772V30.7814C318.999 30.8088 319.013 30.8226 319.041 30.8226C319.096 30.8226 319.123 30.8088 319.123 30.7814L326.126 19.9065C326.95 18.5883 328.144 17.9292 329.71 17.9292H333.17C333.664 17.9292 334.021 18.1489 334.241 18.5883C334.46 19.0277 334.433 19.4533 334.158 19.8653L325.796 32.0584C325.659 32.2506 325.659 32.4428 325.796 32.6351L334.612 46.0639C334.886 46.4759 334.9 46.9015 334.653 47.3409C334.433 47.7803 334.076 48 333.582 48H330.122C328.556 48 327.375 47.3409 326.579 46.0227L319.123 33.912C319.123 33.8846 319.096 33.8708 319.041 33.8708C319.013 33.8708 318.999 33.8846 318.999 33.912V45.652C318.999 46.2836 318.766 46.8329 318.299 47.2997C317.86 47.7666 317.324 48 316.693 48H314.345ZM358.184 32.9646C358.184 26.5111 355.877 23.2843 351.264 23.2843C346.65 23.2843 344.343 26.5111 344.343 32.9646C344.343 39.4182 346.65 42.6449 351.264 42.6449C355.877 42.6449 358.184 39.4182 358.184 32.9646ZM361.562 44.3338C359.035 47.0526 355.603 48.4119 351.264 48.4119C346.925 48.4119 343.492 47.0526 340.966 44.3338C338.439 41.5876 337.176 37.7979 337.176 32.9646C337.176 28.1313 338.439 24.3553 340.966 21.6366C343.492 18.8904 346.925 17.5173 351.264 17.5173C355.603 17.5173 359.035 18.8904 361.562 21.6366C364.088 24.3553 365.352 28.1313 365.352 32.9646C365.352 37.7979 364.088 41.5876 361.562 44.3338ZM372.111 48C371.48 48 370.93 47.7666 370.463 47.2997C369.997 46.8329 369.763 46.2836 369.763 45.652V20.2772C369.763 19.6456 369.997 19.0963 370.463 18.6295C370.93 18.1626 371.48 17.9292 372.111 17.9292H374.459C375.173 17.9292 375.819 18.1214 376.395 18.5059C376.972 18.8904 377.398 19.4122 377.672 20.0712L384.057 35.6009C384.057 35.6284 384.071 35.6421 384.098 35.6421C384.126 35.6421 384.14 35.6284 384.14 35.6009L390.524 20.0712C390.799 19.4122 391.225 18.8904 391.801 18.5059C392.378 18.1214 393.023 17.9292 393.737 17.9292H396.25C396.882 17.9292 397.431 18.1626 397.898 18.6295C398.365 19.0963 398.598 19.6456 398.598 20.2772V45.652C398.598 46.2836 398.365 46.8329 397.898 47.2997C397.431 47.7666 396.882 48 396.25 48H394.273C393.641 48 393.092 47.7666 392.625 47.2997C392.186 46.8329 391.966 46.2836 391.966 45.652V29.628C391.966 29.6005 391.952 29.5868 391.925 29.5868C391.87 29.5868 391.843 29.6005 391.843 29.628L387.888 38.9788C387.613 39.6378 387.174 40.1596 386.57 40.5441C385.993 40.9286 385.348 41.1208 384.634 41.1208H383.563C382.849 41.1208 382.19 40.9286 381.586 40.5441C381.009 40.1596 380.583 39.6378 380.309 38.9788L376.354 29.628C376.354 29.6005 376.327 29.5868 376.272 29.5868C376.244 29.5868 376.23 29.6005 376.23 29.628V45.652C376.23 46.2836 375.997 46.8329 375.53 47.2997C375.091 47.7666 374.555 48 373.924 48H372.111Z" fill="#557614"/>
<circle cx="450.687" cy="31.7185" r="29.6589" fill="#FF5C22" stroke="#FF5C22" stroke-width="4.11929"/>
<mask id="mask0" mask-type="alpha" maskUnits="userSpaceOnUse" x="416" y="7" width="69" height="44">
<path d="M416.048 32.6247C448.05 32.6247 466.157 24.6242 479.21 15.3604" stroke="white" stroke-width="4.94314"/>
<path d="M419.838 47.7837C451.84 47.7837 469.946 35.295 483 20.8344" stroke="white" stroke-width="4.94314"/>
<path d="M416.469 20.8344C447.191 20.8344 464.574 15.7609 477.105 9.88629" stroke="white" stroke-width="4.94314"/>
</mask>
<g mask="url(#mask0)">
<circle cx="450.577" cy="31.3615" r="32.4234" fill="white"/>
</g>
<circle cx="296.177" cy="33.3662" r="7.00279" fill="#FF5C22"/>
<circle cx="160.24" cy="33.3662" r="7.00279" fill="#FF5C22"/>
</svg>
